<?xml version="1.0" encoding="utf-8"?>
<!-- Generator: Adobe Illustrator 18.1.1, SVG Export Plug-In . SVG Version: 6.00 Build 0)  -->
<!DOCTYPE svg PUBLIC "-//W3C//DTD SVG 1.1//EN" "http://www.w3.org/Graphics/SVG/1.1/DTD/svg11.dtd">
<svg version="1.1" id="_x31_0" xmlns="http://www.w3.org/2000/svg" xmlns:xlink="http://www.w3.org/1999/xlink" x="0px" y="0px"
	 viewBox="0 0 512 512" style="enable-background:new 0 0 512 512;" xml:space="preserve">
<style type="text/css">
	.st0{fill:#000000;}
</style>
<g>
	<path class="st0" d="M367.992,375.558v76.891v17.781h107.082c6.988,0,13.546-1.973,19.144-5.386
		c5.051-3.094,9.301-7.344,12.395-12.394c3.414-5.598,5.386-12.161,5.386-19.145v-57.746h-17.782H367.992z"/>
	<polygon class="st0" points="367.992,273.778 367.992,340.004 494.218,340.004 512,340.004 512,273.778 494.218,273.778 	"/>
	<polygon class="st0" points="367.992,171.996 367.992,238.222 494.218,238.222 512,238.222 512,171.996 494.218,171.996 	"/>
	<path class="st0" d="M17.778,47.156C12.726,50.25,8.481,54.5,5.386,59.547C1.973,65.149,0,71.707,0,78.695v57.746h17.778h126.206
		V59.547V41.77H36.926C29.938,41.77,23.379,43.742,17.778,47.156z"/>
	<polygon class="st0" points="0,171.996 0,238.222 17.778,238.222 143.984,238.222 143.984,171.996 17.778,171.996 	"/>
	<polygon class="st0" points="0,273.778 0,340.004 17.778,340.004 143.984,340.004 143.984,273.778 17.778,273.778 	"/>
	<path class="st0" d="M0,375.558v57.746c0,6.984,1.973,13.547,5.386,19.145c3.094,5.05,7.34,9.301,12.391,12.394
		c5.602,3.414,12.16,5.386,19.148,5.386h107.058V452.45v-76.891H17.778H0z"/>
	<path class="st0" d="M506.614,59.547c-3.094-5.047-7.344-9.297-12.395-12.391c-5.598-3.414-12.156-5.386-19.144-5.386H367.992
		h-35.554H179.543v17.778v76.894v35.554v66.226v35.555v66.226v35.554v76.891v17.566v0.054l0,0v0.16h152.894V452.45v-76.891v-35.554
		v-66.226v-35.555v-66.226v-35.554h35.554h126.226H512V78.695C512,71.707,510.027,65.149,506.614,59.547z"/>
</g>
</svg>
