<svg xmlns="http://www.w3.org/2000/svg" viewBox="0 0 76.11 40.05"><defs><style>.cls-1{fill:#fff;}</style></defs><title>Asset 1</title><g id="Layer_2" data-name="Layer 2"><g id="Layer_1-2" data-name="Layer 1"><path id="Path_136" data-name="Path 136" class="cls-1" d="M.1,7.84,12,14.73V1Z"/><path id="Path_137" data-name="Path 137" class="cls-1" d="M0,13.84V27.59l11.91-6.87Z"/><rect id="Rectangle_113" data-name="Rectangle 113" class="cls-1" x="37.51" y="11.24" width="11.91" height="6.88" transform="translate(15.72 51.21) rotate(-71.44)"/><rect id="Rectangle_114" data-name="Rectangle 114" class="cls-1" x="16.94" y="8.78" width="6.88" height="11.91"/><rect id="Rectangle_115" data-name="Rectangle 115" class="cls-1" x="52.28" y="6.81" width="6.88" height="16.95"/><path id="Path_138" data-name="Path 138" class="cls-1" d="M69.24,6.8,62.36,18.71H76.11Z"/><rect id="Rectangle_116" data-name="Rectangle 116" class="cls-1" x="65.8" y="22.74" width="6.88" height="6.88"/><rect id="Rectangle_117" data-name="Rectangle 117" class="cls-1" x="28.06" y="14.17" width="6.88" height="11.95"/><rect id="Rectangle_118" data-name="Rectangle 118" class="cls-1" x="28.06" width="6.88" height="11.95"/><g id="Group_200" data-name="Group 200"><path id="Path_139" data-name="Path 139" class="cls-1" d="M23.85,35.35a1.69,1.69,0,0,0-1.41-.66c-.84,0-1.24.35-1.24.79s.61.67,1.33.75c1.24.16,2.4.48,2.4,1.9S23.76,40,22.43,40a2.47,2.47,0,0,1-2.6-1.46l.93-.49a1.72,1.72,0,0,0,1.68,1c.71,0,1.38-.25,1.38-.9s-.59-.79-1.38-.88c-1.22-.14-2.35-.47-2.35-1.81s1.21-1.73,2.31-1.73a2.41,2.41,0,0,1,2.35,1.18Z"/><path id="Path_140" data-name="Path 140" class="cls-1" d="M34.92,39.13a3.18,3.18,0,0,1-2.27.88,2.94,2.94,0,0,1-3.16-2.69,2.41,2.41,0,0,1,0-.38,3,3,0,0,1,2.84-3.15h.32a3.1,3.1,0,0,1,2.19.91l-.75.73a2,2,0,0,0-1.44-.56,2,2,0,0,0-2.06,1.85v.22a1.92,1.92,0,0,0,1.8,2h.26a2.22,2.22,0,0,0,1.5-.61Z"/><path id="Path_141" data-name="Path 141" class="cls-1" d="M43.29,39.89V37.47H40.36v2.42H39.23v-6h1.13v2.51h2.93V33.92h1.12v6Z"/><path id="Path_142" data-name="Path 142" class="cls-1" d="M54.86,36.93a3.06,3.06,0,0,1-6.12.12v-.11a3.06,3.06,0,1,1,6.12-.2A.6.6,0,0,1,54.86,36.93Zm-5,0a2,2,0,1,0,3.92.14v-.15a2,2,0,0,0-3.92-.33A1.93,1.93,0,0,0,49.84,37Z"/><path id="Path_143" data-name="Path 143" class="cls-1" d="M60.14,33.91v4.93h3.07v1H59v-6Z"/><path id="Path_144" data-name="Path 144" class="cls-1" d="M71.43,38.75H68.31l-.51,1.13H66.58l2.67-6h1.23l2.67,6H71.93Zm-1.56-3.59L68.76,37.7H71Z"/><g id="Group_199" data-name="Group 199"><path id="Path_145" data-name="Path 145" class="cls-1" d="M3.23,35.09H1.33v-1H6.24v1H4.35V40H3.23Z"/></g><path id="Path_146" data-name="Path 146" class="cls-1" d="M11,40v-.93l2.6-2.75a1.68,1.68,0,0,0,.3-.4A1,1,0,0,0,14,35.5a.88.88,0,0,0-.24-.64,1,1,0,0,0-.7-.25,1.26,1.26,0,0,0-.33,0,.71.71,0,0,0-.3.15.79.79,0,0,0-.23.28,1.21,1.21,0,0,0-.08.34H11a1.73,1.73,0,0,1,.16-.67,1.79,1.79,0,0,1,.43-.56,2.27,2.27,0,0,1,.65-.35,2.93,2.93,0,0,1,1.66,0,2.41,2.41,0,0,1,.65.35,1.72,1.72,0,0,1,.41.56,1.7,1.7,0,0,1,.16.74,1.83,1.83,0,0,1,0,.4,1.62,1.62,0,0,1-.13.33,2,2,0,0,1-.23.32c-.1.11-.2.23-.32.35l-2.1,2.22h2.83V40H11Z"/></g></g></g></svg>