<?xml version="1.0" encoding="UTF-8" standalone="no"?>
<!-- Page 1 -->

<svg
   x="0"
   y="0"
   width="1564"
   height="1564"
   viewBox="0 0 1564 1564"
   version="1.1"
   style="display: block;margin-left: auto;margin-right: auto;"
   id="svg120"
   sodipodi:docname="1.svg"
   inkscape:version="1.1.1 (c3084ef, 2021-09-22)"
   xmlns:inkscape="http://www.inkscape.org/namespaces/inkscape"
   xmlns:sodipodi="http://sodipodi.sourceforge.net/DTD/sodipodi-0.dtd"
   xmlns="http://www.w3.org/2000/svg"
   xmlns:svg="http://www.w3.org/2000/svg">
  <sodipodi:namedview
     id="namedview122"
     pagecolor="#ffffff"
     bordercolor="#666666"
     borderopacity="1.0"
     inkscape:pageshadow="2"
     inkscape:pageopacity="0.0"
     inkscape:pagecheckerboard="0"
     showgrid="false"
     inkscape:zoom="0.52685422"
     inkscape:cx="781.05097"
     inkscape:cy="782"
     inkscape:window-width="1680"
     inkscape:window-height="1050"
     inkscape:window-x="0"
     inkscape:window-y="0"
     inkscape:window-maximized="0"
     inkscape:current-layer="svg120" />
  <defs
     id="defs108">
    <clipPath
       id="c_1">
      <path
         d="M0,0H1564V1564H0Z"
         id="path103" />
    </clipPath>
    <style
       type="text/css"
       id="style106"><![CDATA[

.g0{
fill: #005396;
}

]]></style>
  </defs>
  <g
     clip-path="url(#c_1)"
     id="g118">
    <path
       d="M400.9,676.8v498.9c278.7,0,371.5,120.2,371.5,120.2V826.8c0,0,-92.8,-150,-371.5,-150Zm762.6,0c-278.6,0,-371.4,150,-371.4,150v469.1c0,0,92.8,-120.2,371.4,-120.2V676.8Z"
       class="g0"
       id="path112" />
    <path
       d="M817.7,302.8c-27.3,51.4,-39.3,116,14,200.7c2,3.2,6.9,1.3,6.3,-2.4c-5.7,-33.6,-21.3,-69.7,-7.3,-93.9c14.4,-25,50.2,-9.8,50.2,-9.8l3.7,-6.4l134.1,77.4c-1.8,3.8,-1.4,8.5,1.7,11.4c26.8,24.9,119.9,70.1,176.3,102.7c45.8,26.5,91.9,58,110.9,71.4c5,3.4,11.8,1.9,14.8,-3.3l28,-48.6c3.1,-5.2,1,-11.9,-4.5,-14.4c-21.1,-9.9,-71.4,-34,-117.2,-60.4C1172.2,494.6,1086.5,436.6,1051.6,425.9c-4.1,-1.3,-8.3,.7,-10.7,4.2L906.7,352.7l3.8,-6.5c0,0,-29.9,-29.2,-13.5,-57.7c16.5,-28.5,29,-26,29,-26l19.8,-34.2L890.5,196.4l-20,34.7c0,0,13.3,42.8,-40.2,50.5c-4.4,6.8,-8.6,13.8,-12.6,21.2Z"
       class="g0"
       id="path114" />
    <path
       d="M761.8,329.1C735.6,297.4,700.2,290.7,669.1,299.9c-2.8,-2.9,-6.2,-6.5,-7.6,-8c-2.5,-2.9,-15.3,3.1,-15,6.8c.2,2,.6,6.7,1,10.7c-17.9,10.5,-32.7,26.6,-41,46c-14.8,34.3,-42.7,60.1,-72.9,77.5c-19.5,11.3,-257.3,131.6,-285.7,148c-47.4,27.3,-5.4,95.4,40,69.2C314.4,634.8,493.7,522.4,561.3,483.4C619,450,680.6,462.9,697.5,467.8c2.1,.6,4.2,-1.1,3.9,-3.3L686.9,358.1l12.6,-17c0,0,39.4,-5.9,60.7,-8.1c1.9,-.2,2.8,-2.4,1.6,-3.9Zm7,43.9c-.7,-.6,-1.6,-.9,-2.6,-.8c-21,2.1,-56.1,7.4,-56.1,7.4L698.9,394l5.2,39.2c56.6,-23.1,66.5,-48.3,65.8,-57.9c0,-1,-.5,-1.8,-1.1,-2.3ZM634.1,387.8c.1,.3,0,.6,-.2,.8l-8.1,6.7c-1.3,1.1,-1,3.1,.5,3.7l8.8,3.8c1.5,.7,1.8,2.7,.6,3.7l-7.4,6.2c-1.3,1,-1,3,.5,3.7l8.8,3.8c1.5,.7,1.8,2.6,.5,3.7l-7.3,6.2c-1.3,1,-1,3,.5,3.6l9.7,4.2c.6,.3,.5,1.2,-.2,1.3l-13.4,1.9c-1.7,.3,-3.4,-1,-3.6,-2.7L617.2,393c-.2,-1.8,1,-3.4,2.8,-3.7l13.4,-1.9c.3,0,.5,.2,.7,.4ZM288.7,603.1c6.7,11.5,2.7,26.3,-8.9,33c-11.6,6.7,-26.4,2.8,-33.1,-8.8C240,615.7,244,600.9,255.6,594.2c11.6,-6.7,26.4,-2.7,33.1,8.9Z"
       class="g0"
       id="path116" />
  </g>
</svg>
